<svg width="49" height="48" viewBox="0 0 49 48" fill="none" xmlns="http://www.w3.org/2000/svg">
<path d="M36.2745 39.9834C36.2745 36.8041 35.0115 33.755 32.7634 31.5069C30.5153 29.2588 27.4662 27.9959 24.2869 27.9959M24.2869 27.9959C21.1076 27.9959 18.0586 29.2588 15.8105 31.5069C13.5624 33.755 12.2994 36.8041 12.2994 39.9834M24.2869 27.9959C28.7006 27.9959 32.2786 24.4179 32.2786 20.0042C32.2786 15.5905 28.7006 12.0125 24.2869 12.0125C19.8733 12.0125 16.2953 15.5905 16.2953 20.0042C16.2953 24.4179 19.8733 27.9959 24.2869 27.9959ZM44.2661 24C44.2661 35.0342 35.3211 43.9792 24.2869 43.9792C13.2527 43.9792 4.30774 35.0342 4.30774 24C4.30774 12.9658 13.2527 4.02081 24.2869 4.02081C35.3211 4.02081 44.2661 12.9658 44.2661 24Z" stroke="#F8EEB9" stroke-width="2" stroke-linecap="round" stroke-linejoin="round"/>
</svg>
